<svg width="14" height="14" viewBox="0 0 14 14" fill="none" xmlns="http://www.w3.org/2000/svg">
<path d="M6.20682 13.1426C6.32891 13.2647 6.49451 13.3333 6.66718 13.3333C6.83984 13.3333 7.00544 13.2647 7.12753 13.1426C7.24963 13.0206 7.31822 12.855 7.31822 12.6823V7.31824H12.6823C12.855 7.31824 13.0206 7.24965 13.1426 7.12756C13.2647 7.00546 13.3333 6.83987 13.3333 6.6672C13.3333 6.49453 13.2647 6.32894 13.1426 6.20684C13.0206 6.08475 12.855 6.01616 12.6823 6.01616H7.31822V0.651042C7.31822 0.478375 7.24963 0.31278 7.12753 0.190686C7.00544 0.0685918 6.83984 0 6.66718 0C6.49451 0 6.32891 0.0685918 6.20682 0.190686C6.08472 0.31278 6.01613 0.478375 6.01613 0.651042V6.01616H0.651042C0.478375 6.01616 0.31278 6.08475 0.190686 6.20684C0.0685918 6.32894 0 6.49453 0 6.6672C0 6.83987 0.0685918 7.00546 0.190686 7.12756C0.31278 7.24965 0.478375 7.31824 0.651042 7.31824H6.01613V12.6823C6.01613 12.855 6.08472 13.0206 6.20682 13.1426Z" fill="white"/>
</svg>
