<svg width="34" height="24" viewBox="0 0 34 24" fill="none" xmlns="http://www.w3.org/2000/svg">
<g clip-path="url(#clip0_3015_1901)">
<path d="M31.3158 0H2.68421C1.16316 0 0 1.29327 0 2.98446V20.8912C0 22.5824 1.25263 23.8757 2.68421 23.8757H31.3158C32.8368 23.8757 34 22.5824 34 20.8912V2.98446C34 1.29327 32.7474 0 31.3158 0Z" fill="#EBEBEB"/>
<path d="M31.3156 0.994629C32.2998 0.994629 33.1051 1.88997 33.1051 2.98427V20.891C33.1051 21.9853 32.2998 22.8807 31.3156 22.8807H2.684C1.69979 22.8807 0.894531 21.9853 0.894531 20.891V2.98427C0.894531 1.88997 1.69979 0.994629 2.684 0.994629H31.3156Z" fill="#006FCF"/>
<path d="M8.02684 10.2147L8.71936 12.081H7.33968L8.02684 10.2147ZM22.4097 10.2923H19.7461V11.1151H22.3668V12.3476H19.7515V13.2649H22.4151V14L24.2735 11.7667L22.4151 9.43879L22.4097 10.2923ZM9.82705 7.96446H13.4015L14.1952 9.88944L14.9306 7.9585H24.209L25.1736 9.14233L26.1712 7.9585H30.4328L27.2843 11.7905L30.4006 15.5987H26.0755L25.1109 14.4149L24.1044 15.5987H8.97436L8.53236 14.4149H7.52131L7.07842 15.5987H3.5791L6.51921 7.9585H9.58815L9.82705 7.96446ZM17.5782 9.03688H15.5748L14.2327 12.5546L12.7788 9.03688H10.7907V13.822L8.94752 9.03688H7.16431L5.03305 14.5203H6.42436L6.86636 13.3365H9.1891L9.6311 14.5203H12.0648V10.6057L13.6315 14.5263H14.6962L16.253 10.6176V14.5273H17.5576L17.579 9.03589L17.5782 9.03688ZM25.935 11.7905L28.1996 9.03688H26.5694L25.1369 10.7539L23.7518 9.03688H18.4783V14.5263H23.6767L25.1208 12.7973L26.5058 14.5263H28.1835L25.9359 11.7905H25.935Z" fill="white"/>
</g>
<defs>
<clipPath id="clip0_3015_1901">
<rect width="34" height="23.8757" fill="white"/>
</clipPath>
</defs>
</svg>
