<svg width="34" height="24" viewBox="0 0 34 24" fill="none" xmlns="http://www.w3.org/2000/svg">
<g clip-path="url(#clip0_3015_1882)">
<path d="M30.7673 0H3.23238C3.11768 0 3.00278 0 2.88828 0.00067595C2.79162 0.00157722 2.69516 0.0027038 2.59849 0.00563291C2.38794 0.0119418 2.17557 0.0259114 1.96765 0.0673696C1.75913 0.107091 1.5571 0.181131 1.36821 0.287053C0.988482 0.501798 0.679831 0.844974 0.48669 1.26718C0.391254 1.47728 0.324655 1.70208 0.289108 1.93412C0.251415 2.16552 0.239053 2.40142 0.233379 2.6353C0.230909 2.74268 0.229423 2.85009 0.228921 2.9575C0.228516 3.08458 0.228516 3.21211 0.228516 3.33987V20.5356C0.228516 20.6633 0.228516 20.7906 0.228921 20.9184C0.229529 21.0256 0.230745 21.1331 0.233379 21.2406C0.239053 21.474 0.251618 21.7101 0.289108 21.9413C0.324582 22.1733 0.391113 22.3981 0.486488 22.6083C0.582378 22.8181 0.707543 23.0097 0.857335 23.1761C1.00687 23.3427 1.17924 23.4818 1.36801 23.5884C1.55992 23.6972 1.75649 23.7664 1.96785 23.8085C2.17557 23.8498 2.38794 23.8637 2.59849 23.87C2.69516 23.8725 2.79162 23.8739 2.88828 23.8745C3.00278 23.8754 3.11768 23.8754 3.23238 23.8754H30.7673C30.8818 23.8754 30.9967 23.8754 31.1112 23.8745C31.2077 23.8741 31.3041 23.8725 31.4012 23.87C31.6113 23.8637 31.8237 23.8498 32.032 23.8085C32.2406 23.7688 32.4426 23.6946 32.6315 23.5884C33.011 23.3733 33.3196 23.0303 33.513 22.6083C33.6109 22.3949 33.6729 22.1763 33.7104 21.9413C33.7481 21.7101 33.7602 21.474 33.7659 21.2406C33.7685 21.1331 33.7699 21.0256 33.7703 20.9184C33.7712 20.7906 33.7712 20.6633 33.7712 20.5356V3.34009C33.7712 3.21234 33.7712 3.08481 33.7703 2.95728C33.77 2.84994 33.7685 2.74261 33.7659 2.6353C33.7602 2.40142 33.7481 2.16552 33.7104 1.93412C33.6751 1.70204 33.6085 1.47721 33.513 1.26718C33.3198 0.845048 33.0111 0.501899 32.6315 0.287053C32.4425 0.18124 32.2405 0.107277 32.032 0.067595C31.8237 0.0259114 31.6113 0.0121671 31.4012 0.00585823C31.3045 0.00312903 31.2079 0.00147663 31.1112 0.000901266C30.9967 0 30.8818 0 30.7673 0Z" fill="#EBEBEB"/>
<path d="M30.7673 0.795898L31.1062 0.796574C31.1978 0.79725 31.2896 0.798377 31.3818 0.801081C31.5425 0.806038 31.7301 0.815726 31.9052 0.85065C32.0572 0.881068 32.1849 0.927258 32.3073 0.996655C32.5522 1.13513 32.7512 1.35662 32.8755 1.62912C32.9375 1.76431 32.9789 1.90536 33.0062 2.07592C33.0374 2.26834 33.0461 2.47766 33.0504 2.65724C33.053 2.75863 33.0542 2.86002 33.0544 2.96367C33.0555 3.08917 33.0555 3.21445 33.0555 3.34017V20.5359C33.0555 20.6616 33.0555 20.7869 33.0546 20.9149C33.0542 21.0163 33.053 21.1176 33.0506 21.219C33.0461 21.3984 33.0374 21.6077 33.0058 21.8024C32.9828 21.9572 32.9388 22.1073 32.8751 22.2474C32.7506 22.52 32.5513 22.7415 32.3061 22.8798C32.1845 22.9488 32.0572 22.995 31.9066 23.0252C31.7281 23.0606 31.5324 23.0702 31.385 23.0747C31.2924 23.077 31.2002 23.0786 31.1056 23.079C30.9931 23.0799 30.88 23.0799 30.7673 23.0799H3.22799C3.11653 23.0799 3.00507 23.0799 2.89159 23.079C2.80039 23.0786 2.70919 23.0772 2.61801 23.075C2.46724 23.0705 2.27148 23.0606 2.09437 23.0254C1.95433 22.9995 1.81864 22.9501 1.69191 22.8789C1.57034 22.8103 1.45939 22.7205 1.36321 22.6131C1.26673 22.506 1.18616 22.3826 1.12449 22.2474C1.06081 22.1065 1.01667 21.9557 0.99358 21.8001C0.961966 21.6057 0.95305 21.3973 0.948997 21.2193C0.946707 21.1175 0.945356 21.0157 0.944944 20.914L0.944336 20.615V3.26131L0.944741 2.96277C0.94516 2.86084 0.946511 2.75891 0.948794 2.65701C0.953252 2.47856 0.961966 2.27014 0.993782 2.07412C1.01692 1.91884 1.06106 1.76836 1.12469 1.62777C1.1863 1.49303 1.26655 1.37 1.36382 1.26208C1.46023 1.15472 1.5713 1.06498 1.69292 0.996205C1.81935 0.925585 1.95461 0.876518 2.09417 0.85065C2.26946 0.815726 2.45731 0.806038 2.61822 0.801081C2.70981 0.798377 2.80161 0.79725 2.8926 0.796574L3.23244 0.795898H30.7673Z" fill="white"/>
<path d="M9.04503 8.0594C9.32955 7.66397 9.52247 7.13289 9.4716 6.59033C9.05536 6.61331 8.54753 6.89564 8.25328 7.29152C7.98923 7.63039 7.75557 8.18354 7.81637 8.70335C8.28368 8.74841 8.75058 8.44379 9.04503 8.0594Z" fill="black"/>
<path d="M9.46643 8.80478C8.78756 8.75972 8.21082 9.23289 7.88679 9.23289C7.56255 9.23289 7.06626 8.82732 6.52944 8.83836C5.83091 8.84962 5.18284 9.28899 4.82821 9.98747C4.09908 11.3844 4.63569 13.4573 5.34496 14.5952C5.68926 15.1585 6.10429 15.7781 6.65103 15.7558C7.16779 15.7333 7.37023 15.384 7.99804 15.384C8.62564 15.384 8.80803 15.7558 9.35498 15.7445C9.92199 15.7333 10.2766 15.1812 10.6209 14.6179C11.0161 13.9758 11.1776 13.3562 11.1877 13.3224C11.1776 13.3111 10.0942 12.849 10.0841 11.4633C10.074 10.3029 10.9348 9.75089 10.9754 9.71687C10.4892 8.91744 9.72967 8.82732 9.46623 8.80478" fill="black"/>
<path d="M16.2325 7.23486C17.7073 7.23486 18.7346 8.36528 18.7346 10.011C18.7346 11.6626 17.6863 12.7988 16.1956 12.7988H14.5626V15.6865H13.3828V7.23486H16.2325ZM14.5626 11.6977H15.9163C16.9438 11.6977 17.5282 11.0828 17.5282 10.0168C17.5282 8.9511 16.9436 8.34184 15.9216 8.34184H14.5626V11.6977Z" fill="black"/>
<path d="M19.0273 13.935C19.0273 12.8515 19.7701 12.2307 21.1396 12.137L22.6092 12.0374V11.5687C22.6092 10.8838 22.2037 10.5088 21.482 10.5088C20.8866 10.5088 20.4546 10.8484 20.3654 11.3696H19.3011C19.3329 10.2745 20.2599 9.47803 21.5136 9.47803C22.8621 9.47803 23.7418 10.2628 23.7418 11.4811V15.6862H22.6515V14.6729H22.6252C22.3143 15.3347 21.6294 15.7504 20.8866 15.7504C19.7911 15.7504 19.0273 15.0244 19.0273 13.935ZM22.6092 13.3904V12.9159L21.2976 13.0096C20.56 13.0624 20.1758 13.3668 20.1758 13.8996C20.1758 14.4152 20.576 14.7491 21.2028 14.7491C22.0032 14.7491 22.6092 14.1808 22.6092 13.3904Z" fill="black"/>
<path d="M24.7443 17.9468V16.9338C24.818 16.9453 24.997 16.957 25.0918 16.957C25.6132 16.957 25.9083 16.7114 26.0874 16.0785L26.1928 15.7038L24.1963 9.5542H25.4288L26.8196 14.5441H26.8459L28.2365 9.5542H29.4376L27.3673 16.014C26.8931 17.4959 26.3506 17.9822 25.2024 17.9822C25.1129 17.9822 24.8231 17.9704 24.7443 17.9468Z" fill="black"/>
</g>
<defs>
<clipPath id="clip0_3015_1882">
<rect width="34" height="23.8757" fill="white"/>
</clipPath>
</defs>
</svg>
