<svg width="45" height="45" viewBox="0 0 45 45" fill="none" xmlns="http://www.w3.org/2000/svg">
<path d="M43.9829 10.7995L22.5454 0.0807475C22.4391 0.0276449 22.3219 0 22.2031 0C22.0843 0 21.9672 0.0276449 21.8609 0.0807475L0.423402 10.7995C0.29613 10.8631 0.189097 10.9609 0.114311 11.0819C0.0395252 11.203 -5.48892e-05 11.3425 1.14104e-05 11.4847V32.9222C-0.000768782 33.0652 0.0384749 33.2054 0.113301 33.3272C0.188126 33.449 0.295546 33.5474 0.423402 33.6113L21.8609 44.33C21.9672 44.3831 22.0843 44.4108 22.2031 44.4108C22.3219 44.4108 22.4391 44.3831 22.5454 44.33L43.9829 33.6113C44.1107 33.5474 44.2182 33.449 44.293 33.3272C44.3678 33.2054 44.407 33.0652 44.4063 32.9222V11.4847C44.4063 11.3425 44.3668 11.203 44.292 11.0819C44.2172 10.9609 44.1101 10.8631 43.9829 10.7995ZM22.2031 21.3475L16.2182 18.3547L35.3482 8.19254L41.9325 11.4847L22.2031 21.3475ZM10.0932 15.2922L29.2232 5.13004L33.6638 7.35036L14.5362 17.514L10.0932 15.2922ZM9.18751 16.5516L13.7813 18.8485V24.949L12.0257 23.1934C11.8821 23.0498 11.6874 22.9691 11.4844 22.9691H9.18751V16.5516ZM22.2031 1.62195L27.5411 4.28786L8.41117 14.4515L2.47757 11.4847L22.2031 1.62195ZM1.53126 12.7235L7.65626 15.786V23.7347C7.65626 23.9378 7.73693 24.1325 7.88051 24.2761C8.02409 24.4197 8.21883 24.5004 8.42189 24.5004H11.1674L14.0056 27.3385C14.1127 27.4456 14.2491 27.5185 14.3976 27.548C14.5461 27.5775 14.7 27.5624 14.8399 27.5044C14.9797 27.4465 15.0993 27.3484 15.1834 27.2225C15.2676 27.0966 15.3125 26.9486 15.3125 26.7972V19.6141L21.4375 22.6766V42.4022L1.53126 32.4491V12.7235ZM22.9688 42.4022V22.6766L42.875 12.7235V32.4491L22.9688 42.4022Z" fill="black"/>
</svg>
