<svg width="44" height="43" viewBox="0 0 44 43" fill="none" xmlns="http://www.w3.org/2000/svg">
<path d="M12.7593 3.98438C12.5478 3.98438 12.345 4.06838 12.1955 4.21792C12.0459 4.36745 11.9619 4.57026 11.9619 4.78174V5.60063C11.0657 5.70428 10.3784 6.42589 10.3672 7.26153V7.97118C10.3672 8.85067 11.2004 9.5659 12.225 9.5659C12.4029 9.58584 13.4299 9.5069 13.5566 9.63527V10.2939C13.4291 10.4239 12.4052 10.3417 12.225 10.3633C12.1335 10.3668 12.0439 10.3368 11.9731 10.2787C11.9506 10.0686 11.8456 9.87593 11.6811 9.74316C11.5166 9.61039 11.3062 9.54835 11.096 9.57069C9.57302 9.95581 10.7691 11.9197 11.9619 11.9357V12.7553C11.9619 12.9668 12.0459 13.1696 12.1955 13.3192C12.345 13.4687 12.5478 13.5527 12.7593 13.5527C12.9707 13.5527 13.1736 13.4687 13.3231 13.3192C13.4726 13.1696 13.5566 12.9668 13.5566 12.7553V11.9349C14.4561 11.824 15.1514 11.1654 15.1514 10.3633V9.5659C15.1514 8.68641 14.3181 7.97118 13.2935 7.97118C13.1133 7.95523 12.0911 8.027 11.9619 7.90181C11.9611 7.8739 11.9579 7.28306 11.9699 7.27429C12.0416 7.09089 13.1284 7.20253 13.2935 7.17382C13.4434 7.17382 13.5383 7.24558 13.5558 7.27907C13.614 7.71363 14.0159 8.02142 14.4457 7.9648C15.9551 7.55655 14.7351 5.62136 13.5566 5.60142V4.78174C13.5566 4.57026 13.4726 4.36745 13.3231 4.21792C13.1736 4.06838 12.9707 3.98438 12.7593 3.98438ZM31.8959 4.78174H20.7329C19.6939 4.78572 19.6875 6.37167 20.7329 6.37646H31.8959C32.9349 6.37247 32.9413 4.78652 31.8959 4.78174ZM31.8959 7.97118H20.7329C19.6939 7.97517 19.6875 9.56112 20.7329 9.5659H31.8959C32.9349 9.56192 32.9413 7.97597 31.8959 7.97118ZM31.8959 11.1606H20.7329C19.6939 11.1646 19.6875 12.7506 20.7329 12.7553H31.8959C32.9349 12.7514 32.9413 11.1654 31.8959 11.1606ZM32.6933 16.7422C32.6933 16.5307 32.6093 16.3279 32.4598 16.1783C32.3102 16.0288 32.1074 15.9448 31.8959 15.9448H11.1645C10.9531 15.9448 10.7503 16.0288 10.6007 16.1783C10.4512 16.3279 10.3672 16.5307 10.3672 16.7422C10.3672 16.9536 10.4512 17.1564 10.6007 17.306C10.7503 17.4555 10.9531 17.5395 11.1645 17.5395H31.8959C32.1074 17.5395 32.3102 17.4555 32.4598 17.306C32.6093 17.1564 32.6933 16.9536 32.6933 16.7422ZM26.5297 20.729C26.5297 20.5175 26.4457 20.3147 26.2962 20.1651C26.1466 20.0156 25.9438 19.9316 25.7323 19.9316H11.1645C10.9531 19.9316 10.7503 20.0156 10.6007 20.1651C10.4512 20.3147 10.3672 20.5175 10.3672 20.729C10.3672 20.9404 10.4512 21.1432 10.6007 21.2928C10.7503 21.4423 10.9531 21.5263 11.1645 21.5263H25.7323C25.9438 21.5263 26.1466 21.4423 26.2962 21.2928C26.4457 21.1432 26.5297 20.9404 26.5297 20.729ZM11.1645 23.9184C10.1248 23.9224 10.12 25.5083 11.1645 25.5131H21.3548C21.5663 25.5131 21.7691 25.4291 21.9186 25.2796C22.0682 25.1301 22.1522 24.9272 22.1522 24.7158C22.1522 24.5043 22.0682 24.3015 21.9186 24.1519C21.7691 24.0024 21.5663 23.9184 21.3548 23.9184H11.1645Z" fill="black"/>
<path d="M19.7746 35.0839H3.98681C2.66797 35.0839 1.59472 34.0107 1.59472 32.6918V31.0971H19.2403C19.4518 31.0971 19.6546 31.0131 19.8041 30.8636C19.9537 30.714 20.0377 30.5112 20.0377 30.2997C20.0377 30.0883 19.9537 29.8854 19.8041 29.7359C19.6546 29.5864 19.4518 29.5024 19.2403 29.5024H7.97361V1.59472H35.0839V19.7746C35.0839 19.986 35.1679 20.1888 35.3174 20.3384C35.467 20.4879 35.6698 20.5719 35.8813 20.5719C36.0927 20.5719 36.2955 20.4879 36.4451 20.3384C36.5946 20.1888 36.6786 19.986 36.6786 19.7746V0.797361C36.6786 0.585888 36.5946 0.383076 36.4451 0.233542C36.2955 0.0840076 36.0927 0 35.8813 0H7.17625C6.96478 0 6.76197 0.0840076 6.61243 0.233542C6.4629 0.383076 6.37889 0.585888 6.37889 0.797361V29.5024H0.797361C0.585888 29.5024 0.383076 29.5864 0.233542 29.7359C0.0840076 29.8854 0 30.0883 0 30.2997V32.6918C0 34.8901 1.78848 36.6786 3.98681 36.6786H19.7746C20.8095 36.6738 20.8231 35.0895 19.7746 35.0839Z" fill="black"/>
<path d="M31.8935 20.7344C25.7379 20.7344 20.7305 25.7418 20.7305 31.8974C21.3436 46.7068 42.4458 46.7028 43.0566 31.8974C43.0566 25.7418 38.0492 20.7344 31.8935 20.7344ZM31.8935 41.4658C26.6174 41.4658 22.3252 37.1736 22.3252 31.8974C22.8514 19.2034 40.938 19.2074 41.4619 31.8974C41.4619 37.1736 37.1697 41.4658 31.8935 41.4658Z" fill="black"/>
<path d="M36.9054 27.379L30.2442 34.792L26.7916 32.0316C25.9759 31.3825 24.9816 32.6216 25.7949 33.2762L29.836 36.508C29.9949 36.635 30.1965 36.6964 30.3993 36.6796C30.602 36.6629 30.7908 36.5692 30.9267 36.4179L38.091 28.4442C38.7816 27.6692 37.6086 26.6039 36.9054 27.379Z" fill="black"/>
</svg>
