<svg width="16" height="17" viewBox="0 0 16 17" fill="none" xmlns="http://www.w3.org/2000/svg">
<path fill-rule="evenodd" clip-rule="evenodd" d="M0.88 11.4399C1.11339 11.4399 1.33722 11.5327 1.50225 11.6977C1.66729 11.8627 1.76 12.0866 1.76 12.3199V14.0799C1.76 14.3133 1.85271 14.5372 2.01775 14.7022C2.18278 14.8672 2.40661 14.9599 2.64 14.9599H13.2C13.4334 14.9599 13.6572 14.8672 13.8223 14.7022C13.9873 14.5372 14.08 14.3133 14.08 14.0799V12.3199C14.08 12.0866 14.1727 11.8627 14.3377 11.6977C14.5028 11.5327 14.7266 11.4399 14.96 11.4399C15.1934 11.4399 15.4172 11.5327 15.5823 11.6977C15.7473 11.8627 15.84 12.0866 15.84 12.3199V14.0799C15.84 14.7801 15.5619 15.4516 15.0668 15.9467C14.5717 16.4418 13.9002 16.7199 13.2 16.7199H2.64C1.93983 16.7199 1.26833 16.4418 0.773238 15.9467C0.278142 15.4516 0 14.7801 0 14.0799V12.3199C0 12.0866 0.092714 11.8627 0.257746 11.6977C0.422778 11.5327 0.646609 11.4399 0.88 11.4399Z" fill="#0F61FF"/>
<path fill-rule="evenodd" clip-rule="evenodd" d="M2.89828 6.41807C3.0633 6.25309 3.28709 6.16042 3.52044 6.16042C3.75378 6.16042 3.97757 6.25309 4.1426 6.41807L7.92044 10.1959L11.6983 6.41807C11.7795 6.33402 11.8766 6.26698 11.9839 6.22086C12.0913 6.17474 12.2068 6.15046 12.3236 6.14945C12.4404 6.14843 12.5563 6.1707 12.6645 6.21495C12.7726 6.25919 12.8709 6.32454 12.9535 6.40716C13.0361 6.48979 13.1015 6.58804 13.1457 6.69619C13.19 6.80434 13.2122 6.92021 13.2112 7.03706C13.2102 7.15391 13.1859 7.26938 13.1398 7.37674C13.0937 7.48411 13.0266 7.58121 12.9426 7.66239L8.5426 12.0624C8.37757 12.2274 8.15378 12.32 7.92044 12.32C7.68709 12.32 7.4633 12.2274 7.29828 12.0624L2.89828 7.66239C2.7333 7.49736 2.64062 7.27357 2.64062 7.04023C2.64062 6.80688 2.7333 6.58309 2.89828 6.41807Z" fill="#0F61FF"/>
<path fill-rule="evenodd" clip-rule="evenodd" d="M7.91906 0C8.15245 0 8.37628 0.092714 8.54132 0.257746C8.70635 0.422778 8.79906 0.64661 8.79906 0.88V11.44C8.79906 11.6734 8.70635 11.8972 8.54132 12.0623C8.37628 12.2273 8.15245 12.32 7.91906 12.32C7.68567 12.32 7.46184 12.2273 7.29681 12.0623C7.13178 11.8972 7.03906 11.6734 7.03906 11.44V0.88C7.03906 0.64661 7.13178 0.422778 7.29681 0.257746C7.46184 0.092714 7.68567 0 7.91906 0Z" fill="#0F61FF"/>
</svg>
