<svg width="34" height="24" viewBox="0 0 34 24" fill="none" xmlns="http://www.w3.org/2000/svg">
<g clip-path="url(#clip0_3015_1893)">
<path d="M31.3158 0H2.68421C1.16316 0 0 1.29327 0 2.98446V20.8912C0 22.5824 1.25263 23.8757 2.68421 23.8757H31.3158C32.8368 23.8757 34 22.5824 34 20.8912V2.98446C34 1.29327 32.7474 0 31.3158 0Z" fill="#EBEBEB"/>
<path d="M31.3156 0.994629C32.2998 0.994629 33.1051 1.88997 33.1051 2.98427V20.891C33.1051 21.9853 32.2998 22.8807 31.3156 22.8807H2.684C1.69979 22.8807 0.894531 21.9853 0.894531 20.891V2.98427C0.894531 1.88997 1.69979 0.994629 2.684 0.994629H31.3156Z" fill="white"/>
<path d="M16.1882 11.9138V15.0972H15.2773V7.23814H17.6851C17.9736 7.23271 18.2602 7.29074 18.5284 7.40888C18.7967 7.52702 19.0413 7.70295 19.2482 7.92656C19.4442 8.12989 19.6022 8.37418 19.7132 8.64545C19.8242 8.91672 19.8861 9.20966 19.8952 9.50753C19.9043 9.80539 19.8606 10.1023 19.7665 10.3814C19.6723 10.6604 19.5297 10.9161 19.3466 11.1339L19.2482 11.2493C18.8277 11.6939 18.2658 11.9357 17.6851 11.9198L16.1882 11.9138ZM16.1882 8.20113V10.9747H17.7074C18.0448 10.9866 18.3704 10.8404 18.6067 10.5728C18.7756 10.377 18.8891 10.1302 18.9329 9.8633C18.9767 9.59636 18.949 9.32098 18.8532 9.07142C18.7574 8.82186 18.5977 8.60913 18.3939 8.4597C18.1902 8.31027 17.9515 8.23073 17.7074 8.23097L16.1882 8.20113ZM21.9897 9.54214C22.5712 9.5123 23.1403 9.72917 23.5805 10.152C23.9787 10.5797 24.1907 11.1766 24.1621 11.7924V15.1092H23.2951V14.3471H23.2512C23.0957 14.6329 22.8759 14.8687 22.6134 15.0311C22.3508 15.1936 22.0548 15.277 21.7543 15.2733C21.2639 15.2909 20.7857 15.1015 20.4158 14.7431C20.2406 14.5841 20.1001 14.3829 20.0051 14.1547C19.9101 13.9266 19.863 13.6773 19.8673 13.4259C19.857 13.1718 19.9014 12.9187 19.9968 12.6875C20.0922 12.4563 20.2358 12.2538 20.4158 12.0968C20.8573 11.7438 21.3916 11.5636 21.9351 11.5845C22.3977 11.5646 22.8567 11.677 23.2682 11.9138V11.7069C23.2713 11.5358 23.2392 11.3662 23.1746 11.2109C23.11 11.0556 23.0144 10.9187 22.8951 10.8105C22.6556 10.5685 22.3419 10.4375 22.0183 10.4444C21.7833 10.442 21.5516 10.5062 21.3451 10.631C21.1386 10.7558 20.9641 10.9371 20.8381 11.1577L20.0373 10.5967C20.2548 10.2503 20.5483 9.9715 20.8901 9.78692C21.2318 9.60234 21.6104 9.51807 21.9897 9.54214ZM20.8381 13.4498C20.836 13.5786 20.8624 13.7061 20.9149 13.8209C20.9675 13.9358 21.0447 14.0345 21.1397 14.1084C21.3392 14.2835 21.587 14.376 21.842 14.37C22.2259 14.369 22.5936 14.2009 22.8674 13.9004C23.1403 13.6159 23.2951 13.219 23.2951 12.8032C22.9506 12.5309 22.5321 12.3994 22.1104 12.4311C21.7831 12.4168 21.4601 12.5192 21.1889 12.7236C21.0814 12.8035 20.9933 12.9115 20.9321 13.0381C20.871 13.1647 20.8387 13.3061 20.8381 13.4498ZM29.1467 9.71922L26.1135 17.4689H25.1758L26.322 14.755L24.3321 9.71922H25.319L26.7613 13.5841L28.1651 9.71922H29.1467Z" fill="#5F6368"/>
<path d="M12.5141 11.2258C12.5141 10.9194 12.4926 10.613 12.4488 10.3105H8.61035V12.0485H10.8034C10.7587 12.3247 10.6644 12.588 10.526 12.8227C10.3876 13.0574 10.2081 13.2587 9.99809 13.4144V14.5425H11.308C11.7063 14.114 12.0194 13.5975 12.2271 13.0262C12.4349 12.455 12.5326 11.8416 12.5141 11.2258Z" fill="#4285F4"/>
<path d="M8.61571 15.6394C9.60557 15.6696 10.5686 15.2794 11.3089 14.5481L9.99718 13.414C9.68201 13.6387 9.32491 13.7805 8.95304 13.8286C8.58117 13.8768 8.20432 13.83 7.85114 13.6919C7.49796 13.5538 7.17776 13.328 6.91489 13.0316C6.65202 12.7352 6.4534 12.376 6.33413 11.9814H4.99023V13.1454C5.32652 13.8945 5.84386 14.5247 6.48423 14.9652C7.1246 15.4057 7.86268 15.6392 8.61571 15.6394Z" fill="#34A853"/>
<path d="M6.33342 11.9876C6.16324 11.4278 6.16324 10.8214 6.33342 10.2616V9.09766H4.98953C4.70302 9.72584 4.55371 10.4203 4.55371 11.1246C4.55371 11.8289 4.70302 12.5234 4.98953 13.1515L6.33342 11.9876Z" fill="#0D0D0D"/>
<path d="M8.61571 8.39621C9.19461 8.38445 9.75422 8.62762 10.1726 9.07269L11.3357 7.78639C10.5941 7.01243 9.61034 6.59027 8.59334 6.60952C7.84477 6.61369 7.11187 6.84828 6.47588 7.28727C5.8399 7.72626 5.32568 8.3525 4.99023 9.09656L6.33413 10.2615C6.49126 9.72438 6.79589 9.25554 7.20516 8.92095C7.61443 8.58636 8.10774 8.40284 8.61571 8.39621Z" fill="#EA4335"/>
</g>
<defs>
<clipPath id="clip0_3015_1893">
<rect width="34" height="23.8757" fill="white"/>
</clipPath>
</defs>
</svg>
