<svg width="20" height="20" viewBox="0 0 20 20" fill="none" xmlns="http://www.w3.org/2000/svg">
<path fill-rule="evenodd" clip-rule="evenodd" d="M11.9319 5C12.0691 5 12.2007 5.0545 12.2977 5.15151C12.3947 5.24852 12.4492 5.3801 12.4492 5.51729V7.64438C12.4492 7.78157 12.3947 7.91315 12.2977 8.01016C12.2007 8.10717 12.0691 8.16167 11.9319 8.16167C11.7947 8.16167 11.6631 8.10717 11.5661 8.01016C11.4691 7.91315 11.4146 7.78157 11.4146 7.64438V7.07191H3.01729C2.8801 7.07191 2.74852 7.01741 2.65151 6.9204C2.5545 6.82339 2.5 6.69182 2.5 6.55462C2.5 6.41743 2.5545 6.28586 2.65151 6.18885C2.74852 6.09184 2.8801 6.03734 3.01729 6.03734H11.4146V5.51729C11.4146 5.3801 11.4691 5.24852 11.5661 5.15151C11.6631 5.0545 11.7947 5 11.9319 5ZM17.2517 6.54911C17.2523 6.61704 17.2396 6.68443 17.2142 6.74744C17.1888 6.81044 17.1512 6.86782 17.1036 6.91631C17.056 6.96479 16.9993 7.00342 16.9368 7.03001C16.8743 7.05659 16.8072 7.07059 16.7392 7.07122L13.9569 7.09881C13.8197 7.10018 13.6876 7.047 13.5896 6.95096C13.4916 6.85492 13.4358 6.72389 13.4344 6.5867C13.4331 6.4495 13.4863 6.31738 13.5823 6.2194C13.6783 6.12142 13.8094 6.06561 13.9466 6.06424L16.7296 6.03665C16.7975 6.03601 16.8649 6.04876 16.9279 6.07417C16.9909 6.09958 17.0483 6.13715 17.0968 6.18474C17.1453 6.23232 17.1839 6.28899 17.2105 6.35151C17.2371 6.41403 17.2511 6.48117 17.2517 6.54911ZM7.79703 8.41548C7.93423 8.41548 8.0658 8.46998 8.16281 8.56699C8.25982 8.664 8.31432 8.79558 8.31432 8.93277V11.0599C8.31432 11.1971 8.25982 11.3286 8.16281 11.4256C8.0658 11.5227 7.93423 11.5772 7.79703 11.5772C7.65984 11.5772 7.52827 11.5227 7.43126 11.4256C7.33425 11.3286 7.27975 11.1971 7.27975 11.0599V10.4867H3.01729C2.8801 10.4867 2.74852 10.4322 2.65151 10.3352C2.5545 10.2382 2.5 10.1066 2.5 9.96942C2.5 9.83223 2.5545 9.70065 2.65151 9.60364C2.74852 9.50663 2.8801 9.45213 3.01729 9.45213H7.27975V8.93277C7.27975 8.79558 7.33425 8.664 7.43126 8.56699C7.52827 8.46998 7.65984 8.41548 7.79703 8.41548ZM9.31993 9.96873C9.31993 9.83154 9.37443 9.69996 9.47144 9.60295C9.56845 9.50594 9.70003 9.45144 9.83722 9.45144H16.7344C16.8716 9.45144 17.0032 9.50594 17.1002 9.60295C17.1972 9.69996 17.2517 9.83154 17.2517 9.96873C17.2517 10.1059 17.1972 10.2375 17.1002 10.3345C17.0032 10.4315 16.8716 10.486 16.7344 10.486H9.83722C9.70003 10.486 9.56845 10.4315 9.47144 10.3345C9.37443 10.2375 9.31993 10.1059 9.31993 9.96873ZM10.538 12.5276C10.6752 12.5276 10.8067 12.5821 10.9038 12.6791C11.0008 12.7761 11.0553 12.9077 11.0553 13.0449V15.1727C11.0553 15.3098 11.0008 15.4414 10.9038 15.5384C10.8067 15.6354 10.6752 15.6899 10.538 15.6899C10.4008 15.6899 10.2692 15.6354 10.1722 15.5384C10.0752 15.4414 10.0207 15.3098 10.0207 15.1727V14.5995H3.26628C3.12908 14.5995 2.99751 14.545 2.9005 14.448C2.80349 14.351 2.74899 14.2194 2.74899 14.0822C2.74899 13.945 2.80349 13.8134 2.9005 13.7164C2.99751 13.6194 3.12908 13.5649 3.26628 13.5649H10.0207V13.0456C10.0207 12.9084 10.0752 12.7768 10.1722 12.6798C10.2692 12.5828 10.4008 12.5283 10.538 12.5283V12.5276ZM17.5 14.0794C17.5004 14.1474 17.4875 14.2149 17.4619 14.2778C17.4362 14.3408 17.3985 14.3981 17.3507 14.4465C17.3029 14.4948 17.246 14.5333 17.1834 14.5597C17.1207 14.5861 17.0534 14.5998 16.9855 14.6002L12.5885 14.6271C12.4513 14.6279 12.3194 14.5742 12.2218 14.4778C12.1242 14.3813 12.0689 14.2501 12.0681 14.1129C12.0673 13.9757 12.121 13.8438 12.2174 13.7462C12.3139 13.6486 12.4451 13.5933 12.5823 13.5925L16.9793 13.5649C17.0472 13.5645 17.1147 13.5774 17.1776 13.603C17.2406 13.6287 17.2979 13.6664 17.3463 13.7142C17.3946 13.762 17.4331 13.8189 17.4595 13.8815C17.4859 13.9442 17.4996 14.0115 17.5 14.0794Z" fill="#0F61FF"/>
</svg>
