<svg width="21" height="21" viewBox="0 0 21 21" fill="none" xmlns="http://www.w3.org/2000/svg">
<path fill-rule="evenodd" clip-rule="evenodd" d="M10.2895 5.00322C9.5963 5.00311 8.90988 5.13955 8.26944 5.40477C7.629 5.66998 7.04708 6.05877 6.55692 6.54892C6.06677 7.03906 5.67798 7.62097 5.41276 8.2614C5.14754 8.90183 5.01109 9.58824 5.0112 10.2814C5.01109 10.9746 5.14754 11.661 5.41276 12.3014C5.67798 12.9419 6.06677 13.5238 6.55692 14.0139C7.04708 14.5041 7.629 14.8928 8.26944 15.1581C8.90988 15.4233 9.5963 15.5597 10.2895 15.5596C10.9827 15.5597 11.6691 15.4233 12.3095 15.1581C12.95 14.8928 13.5319 14.5041 14.0221 14.0139C14.5122 13.5238 14.901 12.9419 15.1662 12.3014C15.4314 11.661 15.5679 10.9746 15.5678 10.2814C15.5679 9.58824 15.4314 8.90183 15.1662 8.2614C14.901 7.62097 14.5122 7.03906 14.0221 6.54892C13.5319 6.05877 12.95 5.66998 12.3095 5.40477C11.6691 5.13955 10.9827 5.00311 10.2895 5.00322ZM10.2895 13.7074C9.61213 13.7072 8.95003 13.5062 8.3869 13.1298C7.82377 12.7533 7.3849 12.2184 7.12576 11.5926C6.86663 10.9668 6.79887 10.2782 6.93106 9.61386C7.06324 8.94954 7.38944 8.33932 7.8684 7.86037C8.34737 7.38142 8.95759 7.05523 9.62192 6.92304C10.2863 6.79086 10.9749 6.85861 11.6007 7.11774C12.2265 7.37687 12.7615 7.81574 13.1379 8.37886C13.5143 8.94198 13.7153 9.60407 13.7155 10.2814C13.7157 10.7314 13.6273 11.177 13.4552 11.5927C13.2831 12.0085 13.0307 12.3862 12.7125 12.7044C12.3944 13.0226 12.0166 13.2749 11.6008 13.447C11.1851 13.6191 10.7395 13.7076 10.2895 13.7074Z" fill="white"/>
<path d="M17.0104 4.79489C17.0104 5.47608 16.4582 6.02829 15.777 6.02829C15.0958 6.02829 14.5436 5.47608 14.5436 4.79489C14.5436 4.11369 15.0958 3.56148 15.777 3.56148C16.4582 3.56148 17.0104 4.11369 17.0104 4.79489Z" fill="white"/>
<path fill-rule="evenodd" clip-rule="evenodd" d="M14.5271 0.064616C12.6345 -0.0236682 7.94677 -0.0193825 6.05248 0.064616C4.38791 0.142615 2.91962 0.544607 1.73591 1.7283C-0.0343563 3.49853 -0.0180267 5.81922 0.00498109 9.08896C0.00768469 9.47318 0.0104805 9.8705 0.0104805 10.2816C0.0104805 10.6663 0.00841984 11.0381 0.00642712 11.3977C-0.0123033 14.7774 -0.0250312 17.0739 1.73591 18.8349C3.50942 20.6076 5.85573 20.5901 9.08859 20.5661C9.47585 20.5632 9.8761 20.5603 10.2893 20.5603H10.3451C14.2656 20.5603 15.6274 20.5603 17.0222 20.0203C18.9276 19.2806 20.3659 17.5774 20.5065 14.5184C20.5956 12.625 20.5905 7.93819 20.5065 6.04394C20.3368 2.43286 18.3988 0.242899 14.5271 0.064616ZM17.5228 17.526C16.3284 18.7203 14.7081 18.7166 11.2082 18.7086C10.9079 18.7079 10.5933 18.7071 10.2645 18.7071C10.0626 18.7071 9.86646 18.7073 9.67578 18.7074C5.81791 18.7102 4.20113 18.7113 3.0062 17.5132C1.76305 16.2759 1.7836 14.3935 1.81344 11.6615C1.81827 11.2195 1.82334 10.7552 1.82334 10.2679C1.82334 9.85456 1.81964 9.45134 1.81604 9.05945C1.77841 4.96105 1.75215 2.10048 6.0902 1.8783L6.13938 1.87656C7.19251 1.83934 7.54533 1.82687 10.2525 1.82687L10.2911 1.85258C10.6824 1.85258 11.0666 1.84907 11.4421 1.84564C15.4482 1.80902 18.4609 1.78148 18.6576 6.12622C18.7065 7.21049 18.7176 7.5362 18.7176 10.2807C18.7176 10.5269 18.7178 10.7646 18.718 10.9943V10.996C18.7216 14.7166 18.7231 16.3201 17.5228 17.526Z" fill="white"/>
</svg>
