<svg width="160" height="28" viewBox="0 0 160 28" fill="none" xmlns="http://www.w3.org/2000/svg">
<path d="M9.35276 22.1933C3.3621 22.1933 0 18.6971 0 12.3735V0.456026H4.4013V12.0391C4.4013 16.2649 6.08235 18.393 9.32219 18.393C12.5926 18.393 14.2737 16.2649 14.2737 12.0391V0.456026H18.7055V12.3735C18.7055 18.6971 15.3128 22.1933 9.35276 22.1933Z" fill="white"/>
<path d="M37.0536 0.456026H41.4549V21.7372H35.3725L27.334 5.10749V21.7372H22.9327V0.456026H29.4124L37.0536 16.2345V0.456026Z" fill="white"/>
<path d="M46.0949 21.7372V0.456026H50.4963V21.7372H46.0949Z" fill="white"/>
<path d="M75.8617 11.0966C75.8617 18.241 70.3295 22.0109 64.5834 23.3485C68.2206 23.4701 71.3076 23.8654 74.0279 24.4126V28C69.1375 26.9967 62.9024 26.4191 56.9728 26.4191V22.8317C60.0599 22.7405 63.1774 22.3757 65.7754 21.4028C65.2864 21.4636 64.7668 21.494 64.2778 21.494C58.8984 21.494 54.1303 17.5418 54.1303 11.0054C54.1303 4.71227 58.5316 0 65.0113 0C71.3687 0 75.8617 4.59066 75.8617 11.0966ZM58.6844 11.0358C58.6844 15.4441 61.2824 18.3626 65.0113 18.3626C68.7402 18.3626 71.3076 15.4745 71.3076 11.0662C71.3076 6.71878 68.7708 3.70901 64.9807 3.70901C61.2213 3.70901 58.6844 6.68838 58.6844 11.0358Z" fill="white"/>
<path d="M89.4897 22.1933C82.6738 22.1933 78.4865 17.2682 78.4865 11.0662C78.4865 4.62106 82.9489 0 89.3674 0C95.4498 0 99.6983 4.07383 98.7813 9.45494H94.2272C94.8385 5.95874 92.699 3.70901 89.4286 3.70901C85.5163 3.70901 83.0406 6.962 83.0406 11.0662C83.0406 15.3529 85.6691 18.4843 89.4897 18.4843C92.5462 18.4843 94.594 16.4777 95.0525 13.8328H99.7288C98.9953 18.9403 95.0219 22.1933 89.4897 22.1933Z" fill="white"/>
<path d="M117.673 21.7372L116.053 17.481H106.517L104.897 21.7372H100.19L108.504 0.456026H113.853L122.197 21.7372H117.673ZM107.862 13.8936H114.708L111.285 4.83388L107.862 13.8936Z" fill="white"/>
<path d="M132.106 22.1933C126.451 22.1933 122.875 19.2443 123.242 14.6232H127.674C127.521 17.1162 129.202 18.5755 132.197 18.5755C134.795 18.5755 136.354 17.4506 136.354 15.8089C136.354 11.0662 123.517 15.1097 123.517 6.74918C123.517 2.52334 126.818 0 131.922 0C137.485 0 140.847 3.00977 140.297 7.53963H135.865C136.232 5.04669 134.673 3.61781 131.83 3.61781C129.477 3.61781 127.979 4.65146 127.979 6.26276C127.979 11.0054 140.847 7.0836 140.847 15.3225C140.847 19.6091 137.424 22.1933 132.106 22.1933Z" fill="white"/>
<path d="M148.936 18.1498H160V21.7372H144.534V0.456026H159.694V4.04343H148.936V8.7253H158.105V12.3127H148.936V18.1498Z" fill="white"/>
</svg>
