<svg width="34" height="24" viewBox="0 0 34 24" fill="none" xmlns="http://www.w3.org/2000/svg">
<g clip-path="url(#clip0_3015_1876)">
<path d="M31.3158 0H2.68421C1.16316 0 0 1.29327 0 2.98446V20.8912C0 22.5824 1.25263 23.8757 2.68421 23.8757H31.3158C32.8368 23.8757 34 22.5824 34 20.8912V2.98446C34 1.29327 32.7474 0 31.3158 0Z" fill="#EBEBEB"/>
<path d="M31.3156 0.994629C32.2998 0.994629 33.1051 1.88997 33.1051 2.98427V20.891C33.1051 21.9853 32.2998 22.8807 31.3156 22.8807H2.684C1.69979 22.8807 0.894531 21.9853 0.894531 20.891V2.98427C0.894531 1.88997 1.69979 0.994629 2.684 0.994629H31.3156Z" fill="white"/>
<path d="M13.4214 18.9016C16.8804 18.9016 19.6845 15.7838 19.6845 11.9379C19.6845 8.09189 16.8804 4.97412 13.4214 4.97412C9.96231 4.97412 7.1582 8.09189 7.1582 11.9379C7.1582 15.7838 9.96231 18.9016 13.4214 18.9016Z" fill="#EB001B"/>
<path d="M20.5786 18.9016C24.0376 18.9016 26.8417 15.7838 26.8417 11.9379C26.8417 8.09189 24.0376 4.97412 20.5786 4.97412C17.1195 4.97412 14.3154 8.09189 14.3154 11.9379C14.3154 15.7838 17.1195 18.9016 20.5786 18.9016Z" fill="#F79E1B"/>
<path d="M19.6839 11.938C19.6839 9.55048 18.6102 7.46136 16.9996 6.26758C15.3891 7.56084 14.3154 9.64996 14.3154 11.938C14.3154 14.2261 15.3891 16.4147 16.9996 17.6085C18.6102 16.4147 19.6839 14.3256 19.6839 11.938Z" fill="#FF5F00"/>
</g>
<defs>
<clipPath id="clip0_3015_1876">
<rect width="34" height="23.8757" fill="white"/>
</clipPath>
</defs>
</svg>
