<svg width="24" height="24" viewBox="0 0 24 24" fill="none" xmlns="http://www.w3.org/2000/svg">
<path d="M18.0233 1.60948C16.1849 0.536424 14.177 0 12 0C9.82272 0 7.81486 0.536424 5.97641 1.60948C4.13796 2.68258 2.68221 4.13839 1.60941 5.97667C0.536401 7.8154 0 9.82335 0 12.0005C0 14.4277 0.661177 16.6309 1.98428 18.6099C3.30713 20.5895 5.04136 22.0529 7.18741 23.0006C7.14556 21.886 7.21332 20.9643 7.39055 20.2351L8.93735 13.7036C8.6769 13.1933 8.54677 12.5579 8.54677 11.7973C8.54677 10.9119 8.77072 10.1721 9.2186 9.57859C9.66624 8.98461 10.2133 8.68759 10.8592 8.68759C11.3799 8.68759 11.7811 8.85929 12.0624 9.20346C12.3436 9.5471 12.4844 9.97954 12.4844 10.5003C12.4844 10.8234 12.4243 11.2167 12.3048 11.6801C12.1848 12.1437 12.0286 12.6801 11.8361 13.2896C11.6434 13.8988 11.5054 14.3858 11.422 14.7505C11.2759 15.3858 11.3959 15.9301 11.7813 16.3833C12.1665 16.8365 12.6771 17.063 13.3126 17.063C14.4273 17.063 15.3413 16.4434 16.055 15.2037C16.7685 13.964 17.1252 12.4587 17.1252 10.6876C17.1252 9.32314 16.6852 8.2135 15.805 7.35934C14.9247 6.50538 13.6979 6.07804 12.1253 6.07804C10.3647 6.07804 8.94012 6.64339 7.85187 7.77326C6.76336 8.90367 6.21908 10.2555 6.21908 11.8279C6.21908 12.7656 6.48488 13.5523 7.01594 14.1877C7.19297 14.3961 7.25028 14.6198 7.18787 14.8592C7.16682 14.9219 7.12525 15.0781 7.06285 15.3279C7.00048 15.5778 6.95862 15.7396 6.93782 15.8123C6.85436 16.1459 6.65657 16.2501 6.34386 16.1248C5.5417 15.7915 4.93224 15.2135 4.51581 14.3905C4.09913 13.5677 3.8909 12.6146 3.8909 11.5312C3.8909 10.8332 4.00274 10.1352 4.22668 9.43723C4.45063 8.73927 4.79935 8.06489 5.27363 7.41354C5.74737 6.76299 6.31522 6.18703 6.9769 5.68711C7.63832 5.18695 8.44305 4.78625 9.39103 4.48364C10.3388 4.18182 11.3599 4.03068 12.4536 4.03068C13.9327 4.03068 15.2609 4.35886 16.4379 5.01497C17.6149 5.67137 18.5135 6.52051 19.1333 7.56211C19.7529 8.60375 20.0631 9.71817 20.0631 10.9061C20.0631 12.4687 19.792 13.8751 19.2505 15.1252C18.7088 16.3754 17.9432 17.3571 16.9535 18.0706C15.9636 18.784 14.8386 19.1409 13.5784 19.1409C12.9429 19.1409 12.3492 18.9925 11.7971 18.6954C11.2447 18.3985 10.8646 18.047 10.6563 17.6406C10.1876 19.4842 9.90638 20.5837 9.81256 20.9375C9.61448 21.6773 9.2082 22.5313 8.59369 23.5001C9.7083 23.8334 10.8437 24 12 24C14.177 24 16.1849 23.4636 18.0233 22.3908C19.8617 21.3177 21.3175 19.8619 22.3905 18.0231C23.4633 16.1846 24 14.1769 24 11.9995C24 9.8221 23.4633 7.81445 22.3905 5.97567C21.3177 4.13839 19.8617 2.68258 18.0233 1.60948Z" fill="white"/>
</svg>
