<svg width="24" height="24" viewBox="0 0 24 24" fill="none" xmlns="http://www.w3.org/2000/svg">
<path d="M11.4482 19.7712C11.5947 19.9177 11.7934 20 12.0006 20C12.2078 20 12.4065 19.9177 12.553 19.7712C12.6996 19.6247 12.7819 19.426 12.7819 19.2188V12.7819H19.2188C19.426 12.7819 19.6247 12.6996 19.7712 12.5531C19.9177 12.4066 20 12.2078 20 12.0006C20 11.7934 19.9177 11.5947 19.7712 11.4482C19.6247 11.3017 19.426 11.2194 19.2188 11.2194H12.7819V4.78125C12.7819 4.57405 12.6996 4.37534 12.553 4.22882C12.4065 4.08231 12.2078 4 12.0006 4C11.7934 4 11.5947 4.08231 11.4482 4.22882C11.3017 4.37534 11.2194 4.57405 11.2194 4.78125V11.2194H4.78125C4.57405 11.2194 4.37534 11.3017 4.22882 11.4482C4.08231 11.5947 4 11.7934 4 12.0006C4 12.2078 4.08231 12.4066 4.22882 12.5531C4.37534 12.6996 4.57405 12.7819 4.78125 12.7819H11.2194V19.2188C11.2194 19.426 11.3017 19.6247 11.4482 19.7712Z" fill="#0F61FF"/>
</svg>
