<svg width="34" height="24" viewBox="0 0 34 24" fill="none" xmlns="http://www.w3.org/2000/svg">
<g clip-path="url(#clip0_3015_1868)">
<path d="M31.3158 0H2.68421C1.16316 0 0 1.29327 0 2.98446V20.8912C0 22.5824 1.25263 23.8757 2.68421 23.8757H31.3158C32.8368 23.8757 34 22.5824 34 20.8912V2.98446C34 1.29327 32.7474 0 31.3158 0Z" fill="#EBEBEB"/>
<path d="M31.3156 0.994629C32.2998 0.994629 33.1051 1.88997 33.1051 2.98427V20.891C33.1051 21.9853 32.2998 22.8807 31.3156 22.8807H2.684C1.69979 22.8807 0.894531 21.9853 0.894531 20.891V2.98427C0.894531 1.88997 1.69979 0.994629 2.684 0.994629H31.3156Z" fill="#5A31F4"/>
<path d="M19.131 9.66268C19.131 11.322 18.0779 12.5059 16.6069 12.5059H15.221C15.1981 12.5063 15.1758 12.514 15.1568 12.5281C15.1377 12.5422 15.1227 12.5621 15.1136 12.5855C15.1078 12.6009 15.1047 12.6175 15.1047 12.6342V14.8149C15.1047 14.8318 15.1017 14.8486 15.0958 14.8642C15.09 14.8798 15.0814 14.894 15.0706 14.906C15.0597 14.9179 15.0469 14.9273 15.0328 14.9337C15.0187 14.9401 15.0036 14.9433 14.9884 14.9432H14.0185C13.9876 14.9432 13.958 14.9296 13.9362 14.9053C13.9144 14.8811 13.9022 14.8482 13.9022 14.8139V6.94981C13.9018 6.92419 13.9084 6.89905 13.9212 6.87773C13.934 6.85641 13.9523 6.83991 13.9737 6.83043C13.9879 6.82384 14.0031 6.82046 14.0185 6.82049H16.6132C18.0779 6.82049 19.131 8.00432 19.131 9.66368V9.66268ZM17.9213 9.66268C17.9213 8.70965 17.3326 8.01327 16.5345 8.01327H15.221C15.2057 8.01327 15.1906 8.01662 15.1765 8.02312C15.1624 8.02962 15.1495 8.03914 15.1387 8.05115C15.1279 8.06316 15.1194 8.07742 15.1135 8.09311C15.1077 8.1088 15.1047 8.12562 15.1047 8.1426V11.1768C15.1045 11.1938 15.1074 11.2107 15.1133 11.2264C15.1191 11.2421 15.1278 11.2564 15.1387 11.2683C15.1495 11.2804 15.1623 11.2899 15.1764 11.2964C15.1906 11.3029 15.2057 11.3062 15.221 11.3061H16.5345C17.3326 11.3111 17.9213 10.6147 17.9213 9.66268ZM19.4191 13.434C19.4089 13.1792 19.4566 12.9256 19.5577 12.6966C19.6589 12.4676 19.8103 12.2706 19.998 12.1239C20.3765 11.8095 20.9679 11.6464 21.8367 11.6125L22.7609 11.5767V11.2753C22.7609 10.6714 22.3941 10.4168 21.8054 10.4168C21.2166 10.4168 20.8435 10.6466 20.7585 11.0236C20.7513 11.0501 20.7364 11.0732 20.7162 11.0894C20.696 11.1055 20.6716 11.1139 20.6467 11.1131H19.7323C19.7071 11.1135 19.6825 11.1048 19.6622 11.0883C19.6418 11.0718 19.6269 11.0484 19.6195 11.0216C19.6147 11.0039 19.6135 10.9852 19.6159 10.9669C19.7519 10.0735 20.4248 9.39508 21.8474 9.39508C23.3613 9.39508 23.908 10.174 23.908 11.6593V14.8149C23.9079 14.8319 23.9047 14.8488 23.8987 14.8645C23.8927 14.8802 23.884 14.8944 23.873 14.9064C23.862 14.9183 23.849 14.9277 23.8347 14.934C23.8205 14.9403 23.8052 14.9434 23.7899 14.9432H22.8683C22.8375 14.9432 22.8079 14.9296 22.7861 14.9053C22.7642 14.8811 22.752 14.8482 22.752 14.8139V14.5791C22.7523 14.5596 22.7472 14.5405 22.7375 14.5243C22.7277 14.5081 22.7137 14.4957 22.6974 14.4886C22.6813 14.4815 22.6636 14.4798 22.6466 14.4837C22.6296 14.4876 22.614 14.4969 22.6017 14.5104C22.3243 14.8427 21.8787 15.0825 21.1638 15.0825C20.1125 15.0825 19.4191 14.4786 19.4191 13.434ZM22.7609 12.7506V12.5059L21.5629 12.5755C20.9321 12.6113 20.5653 12.8998 20.5653 13.3873C20.5653 13.829 20.9017 14.0737 21.4904 14.0737C22.2894 14.0737 22.7609 13.5962 22.7609 12.7506ZM24.8332 17.3268V16.4125C24.8334 16.3934 24.8374 16.3745 24.845 16.3573C24.8526 16.3401 24.8635 16.325 24.877 16.3131C24.8904 16.301 24.906 16.2924 24.9226 16.2877C24.9393 16.2831 24.9567 16.2826 24.9736 16.2862C25.115 16.315 25.2582 16.33 25.4022 16.33C25.6489 16.345 25.893 16.2672 26.0951 16.1091C26.2972 15.951 26.4455 15.7218 26.5162 15.4585L26.5761 15.2486C26.585 15.2203 26.585 15.1894 26.5761 15.161L24.6569 9.71839C24.6458 9.68852 24.6451 9.65511 24.655 9.62472C24.665 9.59434 24.6848 9.5692 24.7106 9.55425C24.7277 9.54423 24.7467 9.5391 24.7661 9.53933H25.6966C25.7205 9.5394 25.7438 9.54752 25.7634 9.56261C25.7831 9.57771 25.7981 9.59907 25.8066 9.62389L27.1094 13.4629C27.1174 13.4887 27.1325 13.511 27.1526 13.5267C27.1727 13.5424 27.1967 13.5507 27.2212 13.5504C27.2457 13.5504 27.2696 13.542 27.2896 13.5263C27.3096 13.5107 27.3248 13.4885 27.333 13.4629L28.4649 9.63483C28.4726 9.60844 28.4877 9.58549 28.508 9.56936C28.5283 9.55324 28.5527 9.54481 28.5776 9.5453H29.5404C29.5693 9.54548 29.5971 9.55726 29.6188 9.57846C29.6405 9.59967 29.6546 9.62887 29.6585 9.6607C29.6606 9.68192 29.6582 9.70342 29.6513 9.72337L27.5979 15.7679C27.1255 17.1736 26.3157 17.5317 25.4237 17.5317C25.2544 17.5369 25.0853 17.5148 24.9217 17.466C24.8943 17.4586 24.8702 17.4404 24.8538 17.4148C24.8374 17.3893 24.8297 17.358 24.8323 17.3268H24.8332ZM7.66763 6.36685C6.44676 6.3567 5.26832 6.86437 4.37231 7.78646C4.33418 7.82501 4.31039 7.87801 4.30559 7.93506C4.30079 7.99211 4.31533 8.0491 4.34636 8.09485L4.89931 8.9295C4.91723 8.95765 4.9405 8.98106 4.96747 8.99807C4.99445 9.01508 5.02446 9.02528 5.05538 9.02794C5.0863 9.0306 5.11737 9.02566 5.14637 9.01346C5.17538 9.00126 5.20161 8.9821 5.22321 8.95736C5.54524 8.6018 5.9277 8.32106 6.34828 8.13148C6.76887 7.9419 7.21919 7.84727 7.673 7.85311C9.56984 7.85311 10.5603 9.4289 10.5603 10.9868C10.5603 12.678 9.51973 13.8698 8.02373 13.8927C6.86773 13.8927 5.99626 13.0471 5.99626 11.9289C5.99725 11.6461 6.05504 11.3672 6.16542 11.1125C6.27579 10.8577 6.43595 10.6336 6.63421 10.4565C6.67642 10.4181 6.70322 10.3625 6.70875 10.3022C6.71428 10.2418 6.6981 10.1814 6.66373 10.1342L6.08215 9.32345C6.06459 9.29852 6.04268 9.2778 6.01773 9.26253C5.99279 9.24727 5.96532 9.23777 5.93698 9.23461C5.90865 9.23145 5.88003 9.23469 5.85285 9.24415C5.82568 9.2536 5.8005 9.26907 5.77884 9.28963C5.42264 9.60731 5.1347 10.0094 4.936 10.4665C4.738 10.9226 4.63494 11.4224 4.63447 11.9289C4.63447 13.8539 6.11526 15.363 8.0121 15.3749H8.03894C10.291 15.3431 11.9194 13.5007 11.9194 10.9828C11.9194 8.74745 10.4279 6.36685 7.66763 6.36685Z" fill="white"/>
</g>
<defs>
<clipPath id="clip0_3015_1868">
<rect width="34" height="23.8757" fill="white"/>
</clipPath>
</defs>
</svg>
