<svg width="19" height="22" viewBox="0 0 19 22" fill="none" xmlns="http://www.w3.org/2000/svg">
<path d="M18.8481 5.3744C17.6212 5.3744 16.4892 4.96796 15.5802 4.2823C14.5376 3.4963 13.7886 2.34332 13.5241 1.01442C13.4577 0.680276 13.4228 0.340651 13.4199 0H9.91523V9.5765L9.91103 14.822C9.91103 16.2244 8.9978 17.4135 7.73188 17.8317C7.35269 17.957 6.95331 18.01 6.55455 17.9878C6.02719 17.9589 5.533 17.7997 5.10346 17.5428C4.1894 16.9961 3.56966 16.0044 3.55287 14.8699C3.52641 13.0967 4.95987 11.6511 6.73174 11.6511C7.08149 11.6511 7.41739 11.7082 7.73188 11.8119V8.25348C7.40018 8.20435 7.0626 8.17874 6.72124 8.17874C4.78184 8.17874 2.96798 8.9849 1.67141 10.4372C0.69142 11.5348 0.103595 12.9351 0.0129025 14.4034C-0.105922 16.3323 0.599887 18.1659 1.96868 19.5187C2.1698 19.7173 2.381 19.9016 2.60185 20.0717C3.7754 20.9748 5.21011 21.4644 6.72124 21.4644C7.0626 21.4644 7.40018 21.4392 7.73188 21.3901C9.1435 21.181 10.4459 20.5348 11.4738 19.5187C12.7368 18.2704 13.4346 16.6132 13.4422 14.8493L13.4241 7.01611C14.0281 7.48194 14.6897 7.86778 15.3925 8.16404C16.4921 8.628 17.6581 8.86313 18.8581 8.86271V5.37356C18.859 5.3744 18.8489 5.3744 18.8481 5.3744Z" fill="white"/>
</svg>
