<svg width="34" height="24" viewBox="0 0 34 24" fill="none" xmlns="http://www.w3.org/2000/svg">
<g clip-path="url(#clip0_3015_1872)">
<path d="M31.3158 0H2.68421C1.16316 0 0 1.29327 0 2.98446V20.8912C0 22.5824 1.25263 23.8757 2.68421 23.8757H31.3158C32.8368 23.8757 34 22.5824 34 20.8912V2.98446C34 1.29327 32.7474 0 31.3158 0Z" fill="#EBEBEB"/>
<path d="M31.3156 0.994629C32.2998 0.994629 33.1051 1.88997 33.1051 2.98427V20.891C33.1051 21.9853 32.2998 22.8807 31.3156 22.8807H2.684C1.69979 22.8807 0.894531 21.9853 0.894531 20.891V2.98427C0.894531 1.88997 1.69979 0.994629 2.684 0.994629H31.3156Z" fill="white"/>
<path d="M25.321 10.0476H25.0526C24.6947 11.0424 24.4263 11.5398 24.1578 13.0321H25.8578C25.5894 11.5398 25.5894 10.8435 25.321 10.0476ZM27.9157 15.9171H26.3947C26.3052 15.9171 26.3052 15.9171 26.2157 15.8176L26.0368 14.9222L25.9473 14.7233H23.7999C23.7105 14.7233 23.621 14.7233 23.621 14.9222L23.3526 15.8176C23.3526 15.9171 23.2631 15.9171 23.2631 15.9171H21.3842L21.5631 15.4196L24.1578 8.65487C24.1578 8.15746 24.4263 7.9585 24.8736 7.9585H26.2157C26.3052 7.9585 26.3947 7.9585 26.3947 8.15746L27.6473 14.6238C27.7368 15.0217 27.8263 15.3202 27.8263 15.7181C27.9157 15.8176 27.9157 15.8176 27.9157 15.9171ZM15.9263 15.6186L16.2842 13.8279C16.3736 13.8279 16.4631 13.9274 16.4631 13.9274C17.0894 14.2259 17.7157 14.4248 18.3421 14.3253C18.521 14.3253 18.7894 14.2259 18.9684 14.1264C19.4157 13.9274 19.4157 13.43 19.0578 13.0321C18.8789 12.8331 18.6105 12.7336 18.3421 12.5347C17.9842 12.3357 17.6263 12.1367 17.3578 11.8383C16.2842 10.8435 16.6421 9.45073 17.2684 8.75435C17.8052 8.35642 18.0736 7.9585 18.7894 7.9585C19.8631 7.9585 21.0263 7.9585 21.5631 8.15746H21.6526C21.5631 8.75435 21.4736 9.25176 21.2947 9.84865C20.8473 9.64969 20.3999 9.45073 19.9526 9.45073C19.6842 9.45073 19.4157 9.45073 19.1473 9.55021C18.9684 9.55021 18.8789 9.64969 18.7894 9.74917C18.6105 9.94814 18.6105 10.2466 18.7894 10.4455L19.2368 10.8435C19.5947 11.0424 19.9526 11.2414 20.221 11.4404C20.6684 11.7388 21.1157 12.2362 21.2052 12.8331C21.3842 13.7284 21.1157 14.5243 20.3999 15.1212C19.9526 15.5191 19.7736 15.7181 19.1473 15.7181C17.8947 15.7181 16.9105 15.8176 16.1052 15.5191C16.0157 15.7181 16.0157 15.7181 15.9263 15.6186ZM12.7947 15.9171C12.8842 15.2207 12.8842 15.2207 12.9736 14.9222C13.421 12.7336 13.8684 10.4455 14.2263 8.25694C14.3157 8.05798 14.3157 7.9585 14.4947 7.9585H16.1052C15.9263 9.15228 15.7473 10.0476 15.4789 11.1419C15.2105 12.6341 14.9421 14.1264 14.5842 15.6186C14.5842 15.8176 14.4947 15.8176 14.3157 15.8176L12.7947 15.9171ZM4.47363 8.15746C4.47363 8.05798 4.65258 7.9585 4.74205 7.9585H7.78416C8.23153 7.9585 8.58942 8.25694 8.6789 8.75435L9.48416 13.1316C9.48416 13.231 9.48416 13.231 9.57363 13.3305C9.57363 13.231 9.66311 13.231 9.66311 13.231L11.5421 8.15746C11.4526 8.05798 11.5421 7.9585 11.6315 7.9585H13.5105C13.5105 8.05798 13.5105 8.05798 13.421 8.15746L10.6473 15.4196C10.5578 15.6186 10.5578 15.7181 10.4684 15.8176C10.3789 15.9171 10.1999 15.8176 10.021 15.8176H8.6789C8.58942 15.8176 8.49995 15.8176 8.49995 15.6186L7.06837 9.45073C6.88942 9.25176 6.621 8.95332 6.26311 8.85383C5.72626 8.55539 4.74205 8.35642 4.56311 8.35642L4.47363 8.15746Z" fill="#142688"/>
</g>
<defs>
<clipPath id="clip0_3015_1872">
<rect width="34" height="23.8757" fill="white"/>
</clipPath>
</defs>
</svg>
