<svg width="49" height="49" viewBox="0 0 49 49" fill="none" xmlns="http://www.w3.org/2000/svg">
<path d="M24.355 2C30.2521 2 35.5953 4.39461 39.4642 8.25458C42.2922 11.0701 44.2724 14.6235 45.1791 18.5096C46.0859 22.3958 45.8828 26.4586 44.593 30.2349C44.2438 29.8287 43.8645 29.4494 43.4582 29.1002C44.017 27.2394 44.3 25.3067 44.2981 23.3638C44.2981 17.8598 42.0643 12.883 38.4546 9.27318C36.6055 7.41797 34.4079 5.94663 31.9881 4.94377C29.5684 3.94091 26.9743 3.42633 24.355 3.42962C18.8509 3.42962 13.8651 5.6634 10.2643 9.27318C8.41014 11.1212 6.93941 13.3173 5.93659 15.7355C4.93377 18.1536 4.41861 20.746 4.42072 23.3638C4.42072 28.8768 6.6545 33.8537 10.2643 37.4635C12.5149 39.7228 15.2763 41.4073 18.3151 42.3746C21.3539 43.3419 24.5809 43.5636 27.7235 43.0211C28.0183 43.4678 28.3489 43.8878 28.7064 44.2899C27.2751 44.5881 25.8169 44.7378 24.355 44.7366C18.4578 44.7366 13.1146 42.342 9.25462 38.4821C7.26713 36.4987 5.69137 34.1419 4.61797 31.5474C3.54458 28.9528 2.99472 26.1717 3.00004 23.3638C3.00004 17.4667 5.38571 12.1235 9.25462 8.26351C13.1146 4.39461 18.4578 2 24.355 2Z" fill="black"/>
<path d="M9.24616 10.3726C11.4085 11.4359 13.7137 12.2758 16.1441 12.8566C23.9353 14.707 32.1295 13.7515 39.286 10.1582C38.9598 9.78835 38.62 9.43071 38.2674 9.08594C33.9062 11.1976 29.1292 12.3109 24.2838 12.3449C19.4384 12.3789 14.6463 11.3327 10.2558 9.28251C9.89842 9.63098 9.56782 9.99732 9.24616 10.3726ZM4.58203 20.7999C7.29831 22.4082 10.2469 23.6948 13.3742 24.5884C20.4642 26.6205 27.9866 26.5895 35.0597 24.499C38.2853 23.5429 41.3232 22.1759 44.0842 20.4693C44.0116 19.9595 43.9192 19.4528 43.8072 18.9503C41.0284 20.7373 37.9457 22.158 34.6576 23.1319C27.8444 25.1482 20.5975 25.1792 13.7673 23.2213C10.6262 22.325 7.62285 21.0022 4.84115 19.2898C4.73818 19.7927 4.65472 20.2994 4.59097 20.8088L4.58203 20.7999ZM8.56709 35.5428C14.1316 37.6456 20.0657 38.5941 26.0084 38.3306C25.9558 37.8559 25.9349 37.3783 25.9459 36.9009C25.3179 36.9308 24.6893 36.9457 24.0606 36.9456C18.2327 36.9772 12.4645 35.7712 7.13747 33.4073C7.56636 34.1489 8.04885 34.8637 8.56709 35.5428Z" fill="black"/>
<path d="M24.3546 2C27.0977 2 29.528 4.48396 31.2346 8.48689C32.8608 12.3111 33.8705 17.5739 33.8705 23.3638C33.8685 24.5505 33.8238 25.7366 33.7365 26.92C33.2326 27.0589 32.7398 27.2351 32.2622 27.4472C32.3817 26.0894 32.4413 24.7269 32.4409 23.3638C32.4409 17.7615 31.4759 12.6953 29.9212 9.0498C28.4469 5.57404 26.4722 3.42962 24.3546 3.42962C22.2459 3.42962 20.2713 5.57404 18.797 9.0498C17.2423 12.6953 16.2773 17.7615 16.2773 23.3638C16.2773 28.9751 17.2423 34.0413 18.797 37.6868C20.2713 41.1626 22.2459 43.307 24.3546 43.307C24.8968 43.302 25.4299 43.1672 25.9093 42.9139C26.3575 42.6754 26.7697 42.3746 27.1334 42.0204C27.3568 42.4671 27.607 42.8692 27.8929 43.2713C27.4852 43.6289 27.0351 43.935 26.5526 44.1827C25.8747 44.5402 25.121 44.7302 24.3546 44.7366C21.6115 44.7366 19.1901 42.2527 17.4835 38.2497C15.8573 34.4255 14.8477 29.1627 14.8477 23.3638C14.8477 17.565 15.8573 12.3111 17.4835 8.48689C19.1812 4.48396 21.6115 2 24.3635 2H24.3546Z" fill="black"/>
<path d="M36.5525 26.547C37.9458 26.5434 39.3262 26.8154 40.614 27.3473C41.9019 27.8791 43.0719 28.6604 44.0568 29.646C45.0416 30.6317 45.8219 31.8024 46.3526 33.0907C46.8834 34.379 47.1542 35.7596 47.1495 37.1529C47.153 38.5456 46.8814 39.9251 46.3501 41.2124C45.8188 42.4997 45.0383 43.6693 44.0536 44.6541C43.0689 45.6388 41.8993 46.4192 40.612 46.9505C39.3247 47.4818 37.9451 47.7535 36.5525 47.75C35.1584 47.7559 33.7768 47.4859 32.4875 46.9557C31.1981 46.4255 30.0264 45.6454 29.0398 44.6604C28.0531 43.6755 27.2711 42.505 26.7387 41.2166C26.2063 39.9281 25.934 38.5471 25.9376 37.1529C25.9328 35.7581 26.2042 34.3761 26.7361 33.0866C27.268 31.7971 28.0499 30.6256 29.0366 29.6397C30.0233 28.6538 31.1955 27.8729 32.4854 27.3421C33.7754 26.8113 35.1576 26.5411 36.5525 26.547ZM43.0394 30.6571C42.1897 29.8013 41.1791 29.122 40.0658 28.6585C38.9525 28.195 37.7584 27.9563 36.5525 27.9563C35.3465 27.9563 34.1525 28.195 33.0391 28.6585C31.9258 29.122 30.9152 29.8013 30.0656 30.6571C29.2084 31.5069 28.528 32.5181 28.0637 33.6322C27.5993 34.7464 27.3603 35.9414 27.3603 37.1485C27.3603 38.3555 27.5993 39.5506 28.0637 40.6647C28.528 41.7789 29.2084 42.79 30.0656 43.6398C30.9152 44.4957 31.9258 45.1749 33.0391 45.6385C34.1525 46.102 35.3465 46.3406 36.5525 46.3406C37.7584 46.3406 38.9525 46.102 40.0658 45.6385C41.1791 45.1749 42.1897 44.4957 43.0394 43.6398C43.8952 42.7902 44.5745 41.7796 45.038 40.6663C45.5015 39.553 45.7402 38.3589 45.7402 37.1529C45.7402 35.947 45.5015 34.7529 45.038 33.6396C44.5745 32.5263 43.8952 31.5068 43.0394 30.6571Z" fill="black"/>
<path d="M31.7716 37.6087C31.684 37.4405 31.533 37.3139 31.3521 37.257C31.1711 37.2 30.9749 37.2172 30.8066 37.3049C30.6384 37.3926 30.5119 37.5435 30.4549 37.7245C30.3979 37.9055 30.4152 38.1017 30.5028 38.2699L32.415 41.9333C32.4664 42.0365 32.5421 42.1258 32.6355 42.1934C32.7289 42.2611 32.8373 42.3051 32.9514 42.3218C33.0655 42.3385 33.1819 42.3273 33.2908 42.2892C33.3997 42.2511 33.4977 42.1873 33.5765 42.1031L42.467 33.1948C42.5902 33.0588 42.6564 32.8806 42.6518 32.6972C42.6473 32.5138 42.5724 32.3391 42.4427 32.2094C42.313 32.0796 42.1383 32.0047 41.9548 32.0002C41.7714 31.9957 41.5933 32.0619 41.4573 32.1851L33.237 40.4054L31.7716 37.6087Z" fill="black"/>
</svg>
